<?xml version="1.0" encoding="utf-8"?>
<!-- Generator: Adobe Illustrator 25.4.1, SVG Export Plug-In . SVG Version: 6.00 Build 0)  -->
<svg version="1.1" id="Layer_1" xmlns="http://www.w3.org/2000/svg" xmlns:xlink="http://www.w3.org/1999/xlink" x="0px" y="0px"
	 viewBox="0 0 122 20" style="enable-background:new 0 0 122 20;" xml:space="preserve">
<style type="text/css">
	.st0{fill:#FFFFFF;}
</style>
<path class="st0" d="M50.1,6.8c-0.7,0-1.3,0.1-2,0.3c-0.7,0.2-1.3,0.4-1.7,0.7l1,2c0.3-0.2,0.7-0.4,1.1-0.5c0.4-0.1,0.8-0.2,1.2-0.2
	c0.6,0,1.1,0.1,1.4,0.4c0.3,0.2,0.4,0.6,0.4,1h-1.7c-0.9,0-1.6,0.1-2.2,0.3s-1,0.5-1.2,0.9C46.1,12,46,12.5,46,13
	c0,0.5,0.1,0.9,0.4,1.3c0.2,0.4,0.6,0.7,1.1,0.9c0.5,0.2,1,0.3,1.7,0.3c0.7,0,1.3-0.1,1.8-0.4c0.3-0.2,0.5-0.5,0.7-0.9v1.2h2.8v-4.7
	c0-1.4-0.4-2.3-1.1-3C52.5,7.1,51.5,6.8,50.1,6.8z M51.4,12.7c-0.1,0.3-0.3,0.6-0.6,0.7c-0.3,0.2-0.6,0.2-0.9,0.2
	c-0.3,0-0.6-0.1-0.8-0.2c-0.2-0.2-0.3-0.4-0.3-0.6c0-0.3,0.1-0.5,0.3-0.6c0.2-0.2,0.5-0.2,1-0.2h1.3V12.7z M63.4,11.6
	c0.2,0.3,0.3,0.7,0.3,1.2c0,0.5-0.2,1-0.5,1.4s-0.8,0.8-1.4,1c-0.6,0.3-1.4,0.4-2.3,0.4c-0.7,0-1.4-0.1-2.1-0.3
	c-0.7-0.2-1.2-0.4-1.7-0.6l0.9-2c0.4,0.2,0.9,0.4,1.4,0.6s1.1,0.2,1.6,0.2c0.5,0,0.9-0.1,1-0.2c0.2-0.1,0.3-0.2,0.3-0.4
	c0-0.2-0.1-0.3-0.3-0.4c-0.2-0.1-0.4-0.1-0.7-0.2c-0.3,0-0.6-0.1-1-0.1c-0.4-0.1-0.7-0.1-1.1-0.2c-0.4-0.1-0.7-0.2-1-0.4
	c-0.3-0.2-0.5-0.4-0.7-0.7c-0.2-0.3-0.3-0.7-0.3-1.2c0-0.5,0.2-1,0.5-1.5c0.3-0.4,0.8-0.8,1.4-1s1.4-0.4,2.3-0.4
	c0.6,0,1.2,0.1,1.8,0.2s1.1,0.3,1.6,0.5l-0.9,2c-0.4-0.2-0.8-0.4-1.3-0.5S60.4,8.9,60,8.9c-0.5,0-0.9,0.1-1.1,0.2
	c-0.2,0.1-0.3,0.3-0.3,0.4c0,0.2,0.1,0.3,0.3,0.4c0.2,0.1,0.4,0.2,0.7,0.2c0.3,0,0.6,0.1,1,0.1c0.4,0,0.7,0.1,1.1,0.2
	c0.4,0.1,0.7,0.2,1,0.4C63,11.1,63.2,11.3,63.4,11.6z M39.7,10.1c-0.2,0.3-0.2,0.7-0.2,1.1c0,0.4,0.1,0.8,0.2,1.1s0.4,0.5,0.7,0.7
	c0.3,0.2,0.6,0.2,0.9,0.2s0.7-0.1,1-0.3c0.3-0.2,0.5-0.5,0.7-0.9l2.3,1.2C45,14,44.5,14.6,43.8,15c-0.7,0.4-1.5,0.6-2.5,0.6
	c-0.9,0-1.8-0.2-2.5-0.6s-1.3-0.9-1.7-1.6c-0.4-0.7-0.6-1.4-0.6-2.3c0-0.9,0.2-1.6,0.6-2.3c0.4-0.7,1-1.2,1.7-1.6
	c0.7-0.4,1.6-0.6,2.5-0.6c1,0,1.8,0.2,2.5,0.6c0.7,0.4,1.2,1,1.5,1.7L43,10.3c-0.2-0.4-0.4-0.7-0.7-0.9c-0.3-0.2-0.6-0.3-1-0.3
	s-0.7,0.1-0.9,0.2C40.1,9.6,39.8,9.8,39.7,10.1z M32,7.7c-0.2-0.2-0.3-0.3-0.5-0.4C31,7,30.4,6.8,29.7,6.8c-0.8,0-1.5,0.2-2.1,0.5
	c-0.6,0.4-1.1,0.9-1.5,1.5c-0.4,0.7-0.6,1.4-0.6,2.3c0,0.9,0.2,1.7,0.6,2.4c0.4,0.7,0.9,1.2,1.5,1.5c0.6,0.4,1.3,0.5,2.1,0.5
	c0.8,0,1.4-0.2,1.9-0.5c0.2-0.1,0.4-0.3,0.6-0.5v0.9H35V3.8h-3V7.7z M31.8,12.3c-0.2,0.3-0.4,0.5-0.6,0.7c-0.3,0.2-0.6,0.2-0.9,0.2
	c-0.3,0-0.7-0.1-0.9-0.2c-0.3-0.2-0.5-0.4-0.6-0.7c-0.2-0.3-0.2-0.7-0.2-1.1c0-0.4,0.1-0.8,0.2-1.1c0.2-0.3,0.4-0.5,0.6-0.7
	c0.3-0.2,0.6-0.2,0.9-0.2c0.3,0,0.6,0.1,0.9,0.2c0.3,0.2,0.5,0.4,0.6,0.7c0.2,0.3,0.2,0.7,0.2,1.1C32.1,11.6,32,12,31.8,12.3z
	 M22.2,7.4c-0.7-0.4-1.6-0.6-2.5-0.6c-0.9,0-1.8,0.2-2.5,0.6c-0.7,0.4-1.3,0.9-1.7,1.6c-0.4,0.7-0.6,1.4-0.6,2.3
	c0,0.9,0.2,1.6,0.6,2.3c0.4,0.7,1,1.2,1.7,1.6c0.7,0.4,1.6,0.6,2.5,0.6c0.9,0,1.8-0.2,2.5-0.6c0.7-0.4,1.3-0.9,1.7-1.6
	c0.4-0.7,0.6-1.4,0.6-2.3c0-0.9-0.2-1.6-0.6-2.3C23.5,8.2,23,7.7,22.2,7.4z M21.3,12.3c-0.2,0.3-0.4,0.5-0.6,0.7
	c-0.3,0.2-0.6,0.2-0.9,0.2c-0.3,0-0.6-0.1-0.9-0.2c-0.3-0.2-0.5-0.4-0.6-0.7s-0.2-0.7-0.2-1.1c0-0.4,0.1-0.8,0.2-1.1
	c0.2-0.3,0.4-0.5,0.6-0.7c0.3-0.2,0.6-0.2,0.9-0.2c0.3,0,0.7,0.1,0.9,0.2c0.3,0.2,0.5,0.4,0.6,0.7c0.2,0.3,0.2,0.7,0.2,1.1
	C21.5,11.6,21.5,12,21.3,12.3z M70.1,13l0.7,2.1c-0.3,0.2-0.6,0.3-0.9,0.4s-0.8,0.1-1.1,0.1c-1.1,0-1.9-0.3-2.6-0.8
	c-0.6-0.5-0.9-1.4-0.9-2.4V9.5H64V7.3h1.2V5h3v2.2h2v2.2h-2v2.8c0,0.3,0.1,0.5,0.3,0.7s0.4,0.3,0.6,0.3C69.5,13.3,69.8,13.2,70.1,13
	z M9.6,4.5H4.9v10.9h3v-3.1h1.5c2.7,0,4.7-1.4,4.7-3.9v0C14.1,5.9,12.3,4.5,9.6,4.5z M7.9,10V7l3.6,1.5L7.9,10z M109,7.3
	c0.6-0.3,1.3-0.5,2.1-0.5v2.7c-0.1,0-0.3,0-0.4,0s-0.2,0-0.3,0c-0.6,0-1.1,0.2-1.5,0.5s-0.6,0.9-0.6,1.6v3.9h-3V6.9h2.9v1
	C108.4,7.7,108.6,7.5,109,7.3z M77.7,10.1c-0.2,0.3-0.2,0.7-0.2,1.1c0,0.4,0.1,0.8,0.2,1.1s0.4,0.5,0.7,0.7c0.3,0.2,0.6,0.2,0.9,0.2
	s0.7-0.1,1-0.3c0.3-0.2,0.5-0.5,0.7-0.9l2.3,1.2c-0.3,0.7-0.8,1.3-1.5,1.7c-0.7,0.4-1.5,0.6-2.5,0.6c-0.9,0-1.8-0.2-2.5-0.6
	s-1.3-0.9-1.7-1.6c-0.4-0.7-0.6-1.4-0.6-2.3c0-0.9,0.2-1.6,0.6-2.3c0.4-0.7,1-1.2,1.7-1.6c0.7-0.4,1.6-0.6,2.5-0.6
	c1,0,1.8,0.2,2.5,0.6c0.7,0.4,1.2,1,1.5,1.7L81,10.3c-0.2-0.4-0.4-0.7-0.7-0.9c-0.3-0.2-0.6-0.3-1-0.3s-0.7,0.1-0.9,0.2
	C78.1,9.6,77.9,9.8,77.7,10.1z M99.1,6.8c-0.7,0-1.3,0.1-2,0.3c-0.7,0.2-1.3,0.4-1.7,0.7l1,2c0.3-0.2,0.7-0.4,1.1-0.5
	c0.4-0.1,0.8-0.2,1.2-0.2c0.6,0,1.1,0.1,1.4,0.4c0.3,0.2,0.4,0.6,0.4,1h-1.7c-0.9,0-1.6,0.1-2.2,0.3s-1,0.5-1.2,0.9
	c-0.3,0.4-0.4,0.8-0.4,1.4c0,0.5,0.1,0.9,0.4,1.3c0.2,0.4,0.6,0.7,1.1,0.9c0.5,0.2,1,0.3,1.7,0.3c0.7,0,1.3-0.1,1.8-0.4
	c0.3-0.2,0.5-0.5,0.7-0.9v1.2h2.8v-4.7c0-1.4-0.4-2.3-1.1-3C101.5,7.1,100.4,6.8,99.1,6.8z M100.4,12.7c-0.1,0.3-0.3,0.6-0.6,0.7
	c-0.3,0.2-0.6,0.2-0.9,0.2c-0.3,0-0.6-0.1-0.8-0.2c-0.2-0.2-0.3-0.4-0.3-0.6c0-0.3,0.1-0.5,0.3-0.6c0.2-0.2,0.5-0.2,1-0.2h1.3V12.7z
	 M117.7,13l0.7,2.1c-0.3,0.2-0.6,0.3-0.9,0.4s-0.8,0.1-1.1,0.1c-1.1,0-1.9-0.3-2.6-0.8c-0.6-0.5-0.9-1.4-0.9-2.4V9.5h-1.2V7.3h1.2V5
	h3v2.2h2v2.2h-2v2.8c0,0.3,0.1,0.5,0.3,0.7s0.4,0.3,0.6,0.3C117.1,13.3,117.4,13.2,117.7,13z M93.1,8.4c0.3,0.6,0.5,1.3,0.5,2.2v4.9
	h-3v-4.4c0-0.6-0.1-1.1-0.4-1.3c-0.2-0.3-0.6-0.4-1-0.4c-0.3,0-0.6,0.1-0.9,0.2c-0.3,0.1-0.5,0.4-0.6,0.7c-0.1,0.3-0.2,0.7-0.2,1.1
	v4.1h-3V3.8h3v4c0.2-0.2,0.4-0.3,0.6-0.5C88.7,7,89.3,6.8,90,6.8c0.7,0,1.3,0.1,1.8,0.4C92.4,7.5,92.8,7.9,93.1,8.4z"/>
</svg>
